# xmcd
#
# Track frame offsets: 
#        150
#        674
#        17238
#        36076
#        53160
#        68339
#        86842
#        107562
#        126065
#        144229
#        163196
#        182869
#        201860
#        218359
#        232436
#        252415
#        264754
#        289081
#        309878
#
# Disc length: 4328 seconds
#
# Revision: 0
# Processed by: cddbd v1.5.2PL0 Copyright (c) Steve Scherf et al.
# Submitted via: ExactAudioCopy v0.99pb4
#
DISCID=0410e613
DTITLE=Various Artist - prevue promo 1043A-1
DYEAR=2000
DGENRE=pop
TTITLE0=blank - data
TTITLE1=Thisway - Nice
TTITLE2=Jon Secada - Stop
TTITLE3=Jon Secada - Stop(Jonathan Peters Radio Edit)
TTITLE4=Phoenix Stone - Still Be Loving You
TTITLE5=Dido - Here With Me
TTITLE6=Eric Benet feat.  Tamia - Spend My Life With You
TTITLE7=Fishbone - Suffering, The
TTITLE8=Artful Dodger - Re-Rewind
TTITLE9=Santana feat. Everlast - Put Your Lights On
TTITLE10=B.B. King and Eric Clapton - Riding With The King 
TTITLE11=Peter Frampton - You Had To Be There(Live)
TTITLE12=Lit - Over My Head( Movie "TITAN A.E.")
TTITLE13=Primal Scream - Kill All Hippies
TTITLE14=3 Doors Down - Loser
TTITLE15=Millencolin - No Cigar
TTITLE16=58 - Piece Of Candy(LYRICS!!)
TTITLE17=Smashing Pumpkins, The - I Of The Mourning
TTITLE18=Alice Cooper - Blow Me A Kiss
EXTD=
EXTT0=
EXTT1=
EXTT2=
EXTT3=
EXTT4=
EXTT5=
EXTT6=
EXTT7=
EXTT8=
EXTT9=
EXTT10=
EXTT11=
EXTT12=
EXTT13=
EXTT14=
EXTT15=
EXTT16=
EXTT17=
EXTT18=
PLAYORDER=
